<?xml version="1.0" encoding="utf-8"?>
<!-- Generator: Adobe Illustrator 28.0.0, SVG Export Plug-In . SVG Version: 6.00 Build 0)  -->
<svg version="1.1" id="Layer_1" xmlns="http://www.w3.org/2000/svg" xmlns:xlink="http://www.w3.org/1999/xlink" x="0px" y="0px"
	 viewBox="0 0 128 128" style="enable-background:new 0 0 128 128;" xml:space="preserve">
<style type="text/css">
	.st0{fill:#58595B;}
</style>
<path class="st0" d="M117.8,29.3c-1.6-2.4-3.3-4.7-5.1-6.9C101.2,9.1,84.4,0.5,65.5,0c-0.5,0-1,0-1.5,0s-1,0-1.6,0.1
	c-18.8,0.4-35.6,9-47,22.4c-1.9,2.2-3.6,4.5-5.1,6.9C3.8,39.3,0,51.2,0,64s3.8,24.7,10.2,34.7c1.6,2.4,3.3,4.7,5.1,6.8
	c11.4,13.4,28.3,22,47.1,22.4c0.5,0,1,0.1,1.6,0.1c0.5,0,1,0,1.5-0.1c18.8-0.4,35.7-9.1,47.1-22.4c1.8-2.2,3.6-4.5,5.1-6.8
	c6.5-10,10.2-21.9,10.2-34.7S124.2,39.3,117.8,29.3z M119.9,61h-18c-0.3-9.9-1.8-19.1-4.3-27.3c4.2-0.6,8.2-1.3,12-2.2
	C115.6,39.9,119.3,50,119.9,61z M68,8.5c7.2,1.9,13.6,8.7,18.3,18.5c-5.6,0.5-11.7,0.9-18.3,1V8.5z M60,8.5V28
	c-6.6-0.1-12.7-0.4-18.3-1C46.4,17.2,52.8,10.4,60,8.5z M60,36v25H34c0.3-9.5,1.9-18.5,4.5-26.3C45.4,35.4,52.6,35.9,60,36z M60,69
	v23c-7.4,0.1-14.6,0.5-21.4,1.2c-2.4-7.2-4-15.5-4.5-24.3H60V69z M60,100v19.5c-7.2-1.9-13.6-8.7-18.3-18.5
	C47.3,100.5,53.4,100.1,60,100z M68,119.5V100c6.6,0.1,12.7,0.4,18.3,1C81.6,110.8,75.2,117.6,68,119.5z M68,92V69h25.9
	c-0.4,8.8-2,17.1-4.5,24.3C82.6,92.6,75.4,92.1,68,92z M68,61V36c7.4-0.1,14.6-0.5,21.4-1.2C92,42.5,93.7,51.5,94,61H68L68,61z
	 M94.8,26c-2.1-4.9-4.6-9.3-7.5-12.9c6.1,2.8,11.7,6.7,16.4,11.5C101,25.1,98,25.6,94.8,26z M40.7,13.1c-2.9,3.7-5.4,8-7.5,12.9
	c-3.2-0.4-6.2-0.9-8.9-1.5C29,19.8,34.5,15.9,40.7,13.1z M18.4,31.5c3.7,0.8,7.7,1.6,11.9,2.2c-2.5,8.2-4,17.4-4.3,27.3H8
	C8.7,50,12.4,39.9,18.4,31.5z M8.2,69h17.9c0.4,9.1,1.9,17.7,4.3,25.3c-4.2,0.6-8.2,1.3-11.9,2.2C12.8,88.6,9.1,79.2,8.2,69z
	 M33.2,102c2.1,4.9,4.6,9.3,7.5,12.9c-6.1-2.8-11.7-6.7-16.4-11.5C27,102.9,30,102.4,33.2,102z M87.3,114.9c2.9-3.7,5.4-8,7.5-12.9
	c3.2,0.4,6.2,0.9,8.9,1.5C99,108.2,93.4,112.1,87.3,114.9z M109.6,96.5c-3.7-0.8-7.7-1.6-12-2.2c2.4-7.6,3.9-16.2,4.3-25.3h17.9
	C118.9,79.2,115.2,88.6,109.6,96.5z"/>
</svg>
