<?xml version="1.0" ?><svg data-name="Layer 1" id="Layer_1" viewBox="0 0 48 48" xmlns="http://www.w3.org/2000/svg"><title/><path d="M24,0A24,24,0,0,0,13,45.33a3,3,0,0,0,5,1.89,23.47,23.47,0,0,0,12,0,3,3,0,0,0,5-1.89A24,24,0,0,0,24,0ZM17.57,29.63a1,1,0,0,0-.57.91V45a1,1,0,0,1-2,0V30.54a1,1,0,0,0-.57-.91C12.38,28.66,11,26,11,23c0-3.86,2.24-7,5-7s5,3.14,5,7C21,26,19.62,28.66,17.57,29.63ZM35,43V31a4.58,4.58,0,0,0,4-4.54V16a1,1,0,0,0-2,0V26.42A2.59,2.59,0,0,1,34.42,29H34a1,1,0,0,0-1,1V45a1,1,0,0,1-2,0V30a1,1,0,0,0-1-1h-.42A2.59,2.59,0,0,1,27,26.42V16a1,1,0,0,0-2,0V26.42A4.58,4.58,0,0,0,29,31V45a2.58,2.58,0,0,0,0,.4A21.47,21.47,0,0,1,19,45.4a2.58,2.58,0,0,0,0-.4V31.13c2.42-1.47,4-4.64,4-8.13,0-5-3.14-9-7-9s-7,4-7,9c0,3.49,1.58,6.66,4,8.13V43a22,22,0,1,1,22,0ZM24,37a12.9,12.9,0,0,0,3-.36V38.7a15.15,15.15,0,0,1-6,0V36.64A12.9,12.9,0,0,0,24,37ZM24,9a14.87,14.87,0,0,1,9.82,3.71h-3.4a12.87,12.87,0,0,0-12.17-.35A7.36,7.36,0,0,0,16,12a6.47,6.47,0,0,0-1.08.09A14.92,14.92,0,0,1,24,9Zm9,7V26a1,1,0,0,1-2,0V16a1,1,0,0,1,2,0Z"/></svg>