<?xml version="1.0" ?><svg height="24" viewBox="0 0 24 24" width="24" xmlns="http://www.w3.org/2000/svg"><title/><g data-name="Layer 2" id="Layer_2"><g data-name="Layer 1" id="Layer_1-2"><path d="M13.262,6.65417c0,.66487-.5523,1.59342-1.2337,1.59342s-1.2336-.92855-1.2336-1.59342a1.234,1.234,0,0,1,2.4673,0Z" fill="none" stroke="#000" stroke-linecap="round" stroke-linejoin="round"/><path d="M14.34995,9.497H13.262a1.64281,1.64281,0,0,1-2.583,0H9.6561a1,1,0,0,0-.99,1.14142l.71436,5.00006a.99991.99991,0,0,0,.99.85858l.57031,7.00043H13.129l.50659-7.00043a.99991.99991,0,0,0,.99-.85858l.71436-5.00006A1,1,0,0,0,14.34995,9.497Z" fill="none" stroke="#000" stroke-linecap="round" stroke-linejoin="round"/><path d="M5.26152,6.65417c0,.66487-.5523,1.59342-1.2337,1.59342S2.79422,7.319,2.79422,6.65417a1.234,1.234,0,0,1,2.4673,0Z" fill="none" stroke="#000" stroke-linecap="round" stroke-linejoin="round"/><path d="M6.34944,9.497H5.26152a1.64281,1.64281,0,0,1-2.583,0H1.6556a1,1,0,0,0-.99,1.14142L1.38,15.63852a.99991.99991,0,0,0,.99.85858l.57031,7.00043H5.1285l.50659-7.00043a.99991.99991,0,0,0,.99-.85858l.71436-5.00006A1,1,0,0,0,6.34944,9.497Z" fill="none" stroke="#000" stroke-linecap="round" stroke-linejoin="round"/><path d="M21.26253,6.65417c0,.66487-.5523,1.59342-1.2337,1.59342s-1.2336-.92855-1.2336-1.59342a1.234,1.234,0,0,1,2.4673,0Z" fill="none" stroke="#000" stroke-linecap="round" stroke-linejoin="round"/><path d="M9.26178,4.70228c0,.66487-.5523,1.59342-1.2337,1.59342s-1.2336-.92855-1.2336-1.59342a1.234,1.234,0,0,1,2.4673,0Z" fill="none" stroke="#000" stroke-linecap="round" stroke-linejoin="round"/><path d="M13.262,1.77445c0,.66487-.5523,1.59342-1.2337,1.59342s-1.2336-.92855-1.2336-1.59342a1.234,1.234,0,0,1,2.4673,0Z" fill="none" stroke="#000" stroke-linecap="round" stroke-linejoin="round"/><path d="M17.26228,4.70228c0,.66487-.5523,1.59342-1.2337,1.59342S14.795,5.36715,14.795,4.70228a1.234,1.234,0,0,1,2.4673,0Z" fill="none" stroke="#000" stroke-linecap="round" stroke-linejoin="round"/><path d="M22.35045,9.497H21.26253a1.64281,1.64281,0,0,1-2.583,0H17.6566a1,1,0,0,0-.99,1.14142l.71436,5.00006a.99991.99991,0,0,0,.99.85858l.57031,7.00043H21.1295l.50659-7.00043a.99991.99991,0,0,0,.99-.85858l.71436-5.00006A1,1,0,0,0,22.35045,9.497Z" fill="none" stroke="#000" stroke-linecap="round" stroke-linejoin="round"/></g><g data-name="Layer 2" id="Layer_2-2"><rect fill="none" height="24" width="24"/></g></g></svg>