<?xml version="1.0" ?><svg enable-background="new 0 0 24 24" height="24px" id="Layer_1" version="1.1" viewBox="0 0 24 24" width="24px" xml:space="preserve" xmlns="http://www.w3.org/2000/svg" xmlns:xlink="http://www.w3.org/1999/xlink"><g><rect fill="none" height="23" stroke="#000000" stroke-linecap="round" stroke-linejoin="round" stroke-miterlimit="10" width="9" x="7.5" y="0.5"/><line fill="none" stroke="#000000" stroke-linecap="round" stroke-linejoin="round" stroke-miterlimit="10" x1="10.6" x2="10.5" y1="17.5" y2="17.5"/><line fill="none" stroke="#000000" stroke-linecap="round" stroke-linejoin="round" stroke-miterlimit="10" x1="10.6" x2="10.5" y1="15.5" y2="15.5"/><line fill="none" stroke="#000000" stroke-linecap="round" stroke-linejoin="round" stroke-miterlimit="10" x1="10.6" x2="10.5" y1="13.5" y2="13.5"/><line fill="none" stroke="#000000" stroke-linecap="round" stroke-linejoin="round" stroke-miterlimit="10" x1="10.6" x2="10.5" y1="11.5" y2="11.5"/><line fill="none" stroke="#000000" stroke-linecap="round" stroke-linejoin="round" stroke-miterlimit="10" x1="10.6" x2="10.5" y1="9.5" y2="9.5"/><line fill="none" stroke="#000000" stroke-linecap="round" stroke-linejoin="round" stroke-miterlimit="10" x1="10.6" x2="10.5" y1="7.5" y2="7.5"/><line fill="none" stroke="#000000" stroke-linecap="round" stroke-linejoin="round" stroke-miterlimit="10" x1="10.6" x2="10.5" y1="5.5" y2="5.5"/><line fill="none" stroke="#000000" stroke-linecap="round" stroke-linejoin="round" stroke-miterlimit="10" x1="10.6" x2="10.5" y1="3.5" y2="3.5"/><line fill="none" stroke="#000000" stroke-linecap="round" stroke-linejoin="round" stroke-miterlimit="10" x1="13.4" x2="13.5" y1="17.5" y2="17.5"/><line fill="none" stroke="#000000" stroke-linecap="round" stroke-linejoin="round" stroke-miterlimit="10" x1="13.4" x2="13.5" y1="15.5" y2="15.5"/><line fill="none" stroke="#000000" stroke-linecap="round" stroke-linejoin="round" stroke-miterlimit="10" x1="13.4" x2="13.5" y1="13.5" y2="13.5"/><line fill="none" stroke="#000000" stroke-linecap="round" stroke-linejoin="round" stroke-miterlimit="10" x1="13.4" x2="13.5" y1="11.5" y2="11.5"/><line fill="none" stroke="#000000" stroke-linecap="round" stroke-linejoin="round" stroke-miterlimit="10" x1="13.4" x2="13.5" y1="9.5" y2="9.5"/><line fill="none" stroke="#000000" stroke-linecap="round" stroke-linejoin="round" stroke-miterlimit="10" x1="13.4" x2="13.5" y1="7.5" y2="7.5"/><line fill="none" stroke="#000000" stroke-linecap="round" stroke-linejoin="round" stroke-miterlimit="10" x1="13.4" x2="13.5" y1="5.5" y2="5.5"/><line fill="none" stroke="#000000" stroke-linecap="round" stroke-linejoin="round" stroke-miterlimit="10" x1="13.4" x2="13.5" y1="3.5" y2="3.5"/><rect fill="none" height="3" stroke="#000000" stroke-linecap="round" stroke-linejoin="round" stroke-miterlimit="10" width="3" x="10.5" y="20.5"/><rect fill="none" height="19" stroke="#000000" stroke-linecap="round" stroke-linejoin="round" stroke-miterlimit="10" width="7" x="0.5" y="4.5"/><rect fill="none" height="17" stroke="#000000" stroke-linecap="round" stroke-linejoin="round" stroke-miterlimit="10" width="7" x="16.5" y="6.5"/><polyline fill="none" points="3,7.5    3,7.5 5.1,7.5 5.1,7.5  " stroke="#000000" stroke-linecap="round" stroke-linejoin="round" stroke-miterlimit="10"/><polyline fill="none" points="3,9.5    3,9.5 5.1,9.5 5.1,9.5  " stroke="#000000" stroke-linecap="round" stroke-linejoin="round" stroke-miterlimit="10"/><polyline fill="none" points="3,11.5    3,11.5 5.1,11.5 5.1,11.5  " stroke="#000000" stroke-linecap="round" stroke-linejoin="round" stroke-miterlimit="10"/><polyline fill="none" points="3,13.5    3,13.5 5.1,13.5 5.1,13.5  " stroke="#000000" stroke-linecap="round" stroke-linejoin="round" stroke-miterlimit="10"/><polyline fill="none" points="3,15.5    3,15.5 5.1,15.5 5.1,15.5  " stroke="#000000" stroke-linecap="round" stroke-linejoin="round" stroke-miterlimit="10"/><polyline fill="none" points="3,17.5    3,17.5 5.1,17.5 5.1,17.5  " stroke="#000000" stroke-linecap="round" stroke-linejoin="round" stroke-miterlimit="10"/><polyline fill="none" points="3,19.5    3,19.5 5.1,19.5 5.1,19.5  " stroke="#000000" stroke-linecap="round" stroke-linejoin="round" stroke-miterlimit="10"/><polyline fill="none" points="19,9.5    19,9.5 21.1,9.5 21.1,9.5  " stroke="#000000" stroke-linecap="round" stroke-linejoin="round" stroke-miterlimit="10"/><polyline fill="none" points="19,11.5    19,11.5 21.1,11.5 21.1,11.5  " stroke="#000000" stroke-linecap="round" stroke-linejoin="round" stroke-miterlimit="10"/><polyline fill="none" points="19,13.5    19,13.5 21.1,13.5 21.1,13.5  " stroke="#000000" stroke-linecap="round" stroke-linejoin="round" stroke-miterlimit="10"/><polyline fill="none" points="19,15.5    19,15.5 21.1,15.5 21.1,15.5  " stroke="#000000" stroke-linecap="round" stroke-linejoin="round" stroke-miterlimit="10"/><polyline fill="none" points="19,17.5    19,17.5 21.1,17.5 21.1,17.5  " stroke="#000000" stroke-linecap="round" stroke-linejoin="round" stroke-miterlimit="10"/><polyline fill="none" points="19,19.5    19,19.5 21.1,19.5 21.1,19.5  " stroke="#000000" stroke-linecap="round" stroke-linejoin="round" stroke-miterlimit="10"/></g><rect fill="none" height="24" width="24" x="0" y="0"/></svg>