<?xml version="1.0" ?><svg height="24.02383" viewBox="0 0 24.01689 24.02383" width="24.01689" xmlns="http://www.w3.org/2000/svg"><title/><g data-name="Layer 2" id="Layer_2"><g data-name="Layer 1" id="Layer_1-2"><polyline fill="none" points="15.703 10.524 2.5 10.524 0.5 17.524 23.5 17.524 21.378 10.098" stroke="#000" stroke-linecap="round" stroke-linejoin="round"/><line fill="none" stroke="#000" stroke-linecap="round" stroke-linejoin="round" x1="0.5" x2="23.5" y1="19.52383" y2="19.52383"/><line fill="none" stroke="#000" stroke-linecap="round" stroke-linejoin="round" x1="0.5" x2="23.5" y1="21.52383" y2="21.52383"/><polyline fill="none" points="0.5 17.524 0.5 23.524 23.5 23.524 23.5 17.524" stroke="#000" stroke-linecap="round" stroke-linejoin="round"/><path d="M1.15187,15.24226a2.24422,2.24422,0,0,1,2.36645,2.28156" fill="none" stroke="#000" stroke-linecap="round" stroke-linejoin="round"/><path d="M2.13574,12.59451a2.91452,2.91452,0,0,0,2.59038-2.019" fill="none" stroke="#000" stroke-linecap="round" stroke-linejoin="round"/><line fill="none" stroke="#000" stroke-linecap="round" stroke-linejoin="round" x1="5.5173" x2="5.50259" y1="13.52446" y2="13.52446"/><path d="M22.84763,15.24226a2.24422,2.24422,0,0,0-2.36645,2.28156" fill="none" stroke="#000" stroke-linecap="round" stroke-linejoin="round"/><line fill="none" stroke="#000" stroke-linecap="round" stroke-linejoin="round" x1="18.48221" x2="18.49692" y1="13.52446" y2="13.52446"/><ellipse cx="12" cy="13.8198" fill="none" rx="3.55477" ry="1.74925" stroke="#000" stroke-linecap="round" stroke-linejoin="round"/><circle cx="18.33157" cy="7.52601" fill="none" r="3.98682" stroke="#000" stroke-linecap="round" stroke-linejoin="round" transform="translate(7.8662 24.35347) rotate(-80.44215)"/><path d="M16.98005,8.75881a2.20211,2.20211,0,0,0,1.16771.73509,1.06014,1.06014,0,0,0,1.27117-.78211c.0901-.5351-.395-.8889-.94493-1.15536-.5677-.28877-1.03493-.62033-.94484-1.15534a1.06012,1.06012,0,0,1,1.27109-.78222,1.15951,1.15951,0,0,1,.88026.65059" fill="none" stroke="#000" stroke-linecap="round" stroke-linejoin="round"/><line fill="none" stroke="#000" stroke-linecap="round" stroke-linejoin="round" x1="18.88937" x2="18.80024" y1="5.08956" y2="5.61887"/><line fill="none" stroke="#000" stroke-linecap="round" stroke-linejoin="round" x1="18.14776" x2="18.05862" y1="9.4939" y2="10.02331"/><path d="M14.368,7.95358a3.98636,3.98636,0,1,1,1.92851-3.854" fill="none" stroke="#000" stroke-linecap="round" stroke-linejoin="round"/><path d="M10.98005,5.75881a2.20211,2.20211,0,0,0,1.16771.73509,1.06014,1.06014,0,0,0,1.27117-.78211c.0901-.5351-.395-.8889-.94493-1.15536-.5677-.28877-1.03493-.62033-.94484-1.15534a1.06012,1.06012,0,0,1,1.27109-.78222,1.15951,1.15951,0,0,1,.88026.65059" fill="none" stroke="#000" stroke-linecap="round" stroke-linejoin="round"/><line fill="none" stroke="#000" stroke-linecap="round" stroke-linejoin="round" x1="12.88937" x2="12.80024" y1="2.08956" y2="2.61887"/><line fill="none" stroke="#000" stroke-linecap="round" stroke-linejoin="round" x1="12.14776" x2="12.05862" y1="6.4939" y2="7.02331"/></g><g data-name="Layer 2" id="Layer_2-2"><rect fill="none" height="24" width="24" x="0.01689"/></g></g></svg>