<?xml version="1.0" ?><svg id="Layer_1" style="enable-background:new 0 0 30 30;" version="1.1" viewBox="0 0 30 30" xml:space="preserve" xmlns="http://www.w3.org/2000/svg" xmlns:xlink="http://www.w3.org/1999/xlink"><title/><g><path d="M26.35,23.25c-0.414,0-0.75,0.336-0.75,0.75c-0.003,2.346-1.904,4.247-4.25,4.25H8.652C6.305,28.248,4.403,26.347,4.4,24V6   c0.003-2.346,1.904-4.247,4.25-4.25h12.7C23.696,1.753,25.597,3.654,25.6,6v13.014c-0.001,0.977,1.497,0.982,1.498,0   c0,0,0-13.014,0-13.014c-0.004-3.174-2.576-5.746-5.75-5.75H8.652C5.477,0.253,2.904,2.825,2.9,6v18   c0.004,3.174,2.576,5.746,5.75,5.75h12.7c3.174-0.004,5.746-2.576,5.75-5.75C27.1,23.586,26.764,23.25,26.35,23.25z"/><path d="M13.783,25.347c0.027,1.6,2.408,1.599,2.434-0.001C16.189,23.747,13.81,23.748,13.783,25.347z"/><path d="M23.947,20.291V7.273c-0.001-1.189-0.965-2.153-2.154-2.154H8.207c-0.978,0.008-0.984,1.493,0,1.5c0,0,13.586,0,13.586,0   c0.361,0.001,0.653,0.293,0.654,0.654v13.018c0,0.361-0.293,0.654-0.654,0.654H8.207c-0.361,0-0.654-0.293-0.655-0.654V9.273   c0-0.976-1.498-0.984-1.5,0c0,0,0,11.018,0,11.018c0.002,1.189,0.966,2.153,2.155,2.154h13.586   C22.982,22.444,23.946,21.48,23.947,20.291z"/><path d="M15,2.841c-0.777,0.002-0.777,1.184,0,1.186C15.775,4.024,15.774,2.845,15,2.841z"/></g></svg>