<?xml version="1.0" ?><svg id="Layer_1" style="enable-background:new 0 0 30 30;" version="1.1" viewBox="0 0 30 30" xml:space="preserve" xmlns="http://www.w3.org/2000/svg" xmlns:xlink="http://www.w3.org/1999/xlink"><title/><path d="M29.406,6.875c-0.26-2.146-2.049-3.781-4.21-3.847c-0.591-0.004-10.541-0.33-10.759-0.273c0,0-9.628,0.273-9.628,0.273  c-0.97,0.019-3.633,0.778-2.753,2.099c0.265,0.292,0.711,0.328,1.02,0.083c0.499-0.423,1.126-0.664,1.78-0.683l9.628-0.273  C14.46,4.212,24.751,4.515,25.157,4.527c1.417,0.042,2.59,1.112,2.762,2.519c0.382,3.387,0.427,6.804,0.135,10.2H1.952  c-0.242-2.828-0.251-5.671-0.027-8.5C1.959,8.334,1.652,7.972,1.24,7.938C0.827,7.909,0.468,8.214,0.431,8.625  c-0.279,3.451-0.221,6.921,0.175,10.36c0.26,2.145,2.047,3.779,4.207,3.848c1.22,0.03,8.391,0.261,9.446,0.218v2.7H9.686  c-0.414,0-0.75,0.336-0.75,0.75s0.336,0.75,0.75,0.75h10.641c0.414,0,0.75-0.336,0.75-0.75s-0.336-0.75-0.75-0.75h-4.571v-2.7  c1.027,0.041,8.238-0.186,9.444-0.218c2.621-0.047,4.396-2.402,4.301-4.908C29.852,14.248,29.821,10.545,29.406,6.875z   M27.919,18.813c-0.171,1.407-1.345,2.478-2.762,2.52c-3.001,0.104-9.638,0.274-12.576,0.218c0,0-7.725-0.218-7.725-0.218  c-1.439-0.041-2.635-1.155-2.769-2.589h25.838C27.925,18.767,27.925,18.79,27.919,18.813z"/></svg>