<?xml version="1.0" ?><svg id="Layer_1" style="enable-background:new 0 0 30 30;" version="1.1" viewBox="0 0 30 30" xml:space="preserve" xmlns="http://www.w3.org/2000/svg" xmlns:xlink="http://www.w3.org/1999/xlink"><title/><g><path d="M23.191,12.892c-2.337,0.039-2.34,3.516-0.002,3.558C25.529,16.413,25.53,12.932,23.191,12.892z"/><path d="M29.13,11.778c-0.343-1.368-1.499-2.38-2.9-2.539l-2.289-0.255V3c0.004-1.304-0.991-2.394-2.29-2.509   c-4.42-0.407-8.869-0.407-13.289,0C7.063,0.606,6.068,1.696,6.072,3v5.984l-2.29,0.255c-4.577,0.389-3.677,9.609-2.9,12.779   c0,0,0.261,1.051,0.261,1.051c0.2,0.811,0.928,1.38,1.763,1.379h3.166v2.571c-0.004,1.272,0.961,2.339,2.227,2.461   c2.229,0.223,4.467,0.335,6.707,0.334c2.242,0,4.483-0.111,6.707-0.334c1.267-0.122,2.232-1.189,2.228-2.461v-2.571h3.165   c0.835,0.001,1.564-0.568,1.764-1.379C29.908,19.391,30.071,15.495,29.13,11.778z M7.572,3C7.571,2.472,7.974,2.031,8.5,1.984   L8.499,1.98c4.318-0.4,8.694-0.4,13.012,0c0.528,0.046,0.933,0.49,0.93,1.02v5.84c-4.943-0.507-9.926-0.507-14.869,0V3z    M27.669,21.65c-0.166,0.484-0.17,1.327-0.569,1.291c0,0-3.19,0-3.19,0c-0.13-1.373-1.368-2.262-2.7-2.23   c-2.83-0.361-5.696-0.423-8.545-0.317c-0.414,0.03-0.725,0.389-0.695,0.803c0.029,0.397,0.362,0.703,0.759,0.697   c2.952-0.129,5.898,0,8.834,0.353c0.767,0.082,0.943,0.791,0.876,1.453c0,0,0,3.321,0,3.321c0.002,0.501-0.378,0.92-0.876,0.969   c-4.362,0.435-8.755,0.435-13.117,0c-0.498-0.049-0.878-0.468-0.876-0.969V23.7c-0.063-0.662,0.108-1.358,0.877-1.442   c1.212,0.081,1.344-1.512,0.159-1.527c-1.268,0.014-2.379,0.934-2.505,2.217H2.906c-0.4,0.041-0.402-0.813-0.569-1.291   c-0.773-3.126-0.773-6.392,0-9.518c0.206-0.847,0.984-1.418,1.846-1.432c7.188-1.007,14.541-0.97,21.729,0   c0.831,0.041,1.558,0.61,1.757,1.425C28.442,15.258,28.442,18.525,27.669,21.65z"/><path d="M18.847,5.751c0.979,0.031,1.034-1.461,0.052-1.5c-0.118-0.009-2.918-0.21-3.894-0.21c-0.976,0-3.775,0.2-3.894,0.21   c-0.978,0.074-0.874,1.569,0.11,1.5c0.028,0,2.864-0.206,3.785-0.206s3.757,0.2,3.787,0.206H18.847z"/></g></svg>